<?xml version="1.0" standalone="no"?>
<!DOCTYPE svg PUBLIC "-//W3C//DTD SVG 20010904//EN"
 "http://www.w3.org/TR/2001/REC-SVG-20010904/DTD/svg10.dtd">
<svg version="1.0" xmlns="http://www.w3.org/2000/svg"
 width="114.000000pt" height="114.000000pt" viewBox="0 0 114.000000 114.000000"
 preserveAspectRatio="xMidYMid meet">
<metadata>
Created by potrace 1.14, written by Peter Selinger 2001-2017
</metadata>
<g transform="translate(0.000000,114.000000) scale(0.100000,-0.100000)"
fill="#000000" stroke="none">
<path d="M22 937 c-46 -49 -15 -119 54 -121 21 -1 45 -5 52 -9 6 -5 12 -6 12
-3 0 2 26 -8 58 -24 52 -25 59 -26 84 -14 15 8 45 14 68 14 24 0 40 5 40 12 0
6 -2 9 -6 6 -10 -11 -238 101 -246 121 -16 44 -82 54 -116 18z m78 -36 c7 -15
6 -24 -6 -36 -9 -9 -21 -14 -27 -12 -18 6 -31 33 -24 51 9 22 44 20 57 -3z"/>
<path d="M649 948 c-31 -10 -53 -54 -44 -89 3 -14 2 -37 -4 -51 -10 -25 -9
-26 33 -24 26 0 49 8 60 19 10 9 21 17 26 17 9 0 20 23 26 56 5 24 -27 69 -53
76 -10 3 -30 1 -44 -4z m55 -53 c13 -36 -23 -65 -49 -39 -16 16 -19 36 -8 47
12 13 51 7 57 -8z"/>
<path d="M265 920 c-22 -43 -19 -49 30 -70 25 -11 66 -29 91 -40 l45 -20 15
35 c8 19 14 37 14 40 0 3 -30 20 -67 36 -117 53 -111 52 -128 19z"/>
<path d="M470 838 c-28 -47 -25 -53 23 -55 39 -2 44 0 54 27 10 26 9 32 -10
45 -32 22 -45 19 -67 -17z"/>
<path d="M103 752 c-7 -4 -16 -19 -22 -34 -11 -30 -4 -39 50 -62 l34 -14 22
38 c16 27 19 39 10 43 -6 3 -28 12 -48 20 -19 9 -40 12 -46 9z"/>
<path d="M73 648 c-20 -33 -70 -167 -64 -175 7 -9 62 -35 66 -31 5 5 75 176
75 182 0 5 -55 36 -64 36 -3 0 -8 -6 -13 -12z"/>
<path d="M825 640 c-30 -5 -30 -6 -29 -65 1 -33 2 -66 3 -72 2 -19 39 -15 43
4 2 11 14 18 33 19 17 1 36 2 43 3 22 2 34 50 20 79 -14 29 -58 42 -113 32z
m75 -55 c0 -10 -10 -15 -30 -15 -29 0 -38 9 -23 23 13 13 53 7 53 -8z"/>
<path d="M1023 642 l-33 -3 0 -75 c0 -67 2 -74 20 -74 13 0 20 7 20 20 0 13 7
20 20 20 11 0 25 -9 32 -20 17 -26 64 -28 53 -2 -8 16 -8 25 -4 67 6 61 -18
76 -108 67z m65 -54 c-4 -12 -14 -13 -48 -9 -25 3 -7 21 21 21 20 0 29 -4 27
-12z"/>
<path d="M310 618 c-41 -29 -51 -63 -14 -54 19 5 24 3 24 -14 0 -15 -7 -20
-25 -20 -18 0 -25 -5 -25 -20 0 -18 7 -20 65 -20 58 0 65 2 65 20 0 13 -7 20
-18 20 -16 0 -18 8 -18 52 1 28 -4 53 -10 55 -6 2 -25 -7 -44 -19z"/>
<path d="M449 638 c-10 -35 -4 -43 30 -38 12 1 13 -1 3 -13 -13 -16 -6 -50 9
-41 5 3 17 0 26 -5 20 -12 11 -14 -44 -11 -23 1 -31 -3 -29 -14 1 -8 5 -18 9
-22 13 -13 73 -12 95 2 23 15 30 58 11 69 -6 4 -7 14 -4 24 19 48 17 51 -46
51 -32 0 -59 -1 -60 -2z"/>
<path d="M620 621 c0 -10 9 -21 19 -24 14 -3 18 -11 14 -25 -4 -17 1 -23 21
-28 36 -9 24 -19 -19 -16 -29 2 -35 -1 -35 -18 0 -11 6 -21 13 -21 61 -6 79
-4 95 7 22 15 23 60 2 75 -11 8 -12 12 -2 16 6 2 12 16 12 29 0 23 -3 24 -60
24 -52 0 -60 -2 -60 -19z"/>
<path d="M147 568 c-65 -164 -95 -228 -118 -253 -32 -34 -37 -69 -14 -102 19
-27 67 -38 94 -21 27 16 44 64 31 88 -7 12 -1 39 21 96 26 67 28 82 18 104 -6
14 -14 41 -16 60 -6 41 -9 46 -16 28z m-47 -297 c7 -15 6 -24 -6 -36 -9 -9
-21 -14 -27 -12 -18 6 -31 33 -24 51 9 22 44 20 57 -3z"/>
<path d="M208 367 c-21 -50 -22 -69 -6 -85 27 -27 56 -14 78 34 11 26 20 48
20 49 0 3 -69 45 -73 45 -1 0 -10 -19 -19 -43z"/>
<path d="M335 359 c2 -3 61 -30 131 -59 89 -38 129 -60 136 -76 11 -23 47 -44
77 -44 27 0 61 42 61 76 0 42 -39 78 -77 71 -16 -3 -43 2 -63 11 -34 15 -273
35 -265 21z m349 -75 c18 -7 22 -49 6 -59 -6 -3 -19 -3 -30 0 -22 7 -28 50 -7
58 6 3 13 6 14 6 1 1 8 -2 17 -5z"/>
<path d="M295 318 c-17 -55 -27 -45 84 -93 l81 -34 15 29 c8 16 15 34 15 39 0
12 -120 69 -161 78 -21 4 -28 0 -34 -19z"/>
</g>
</svg>
